<?xml version="1.0" encoding="utf-8"?>
<!-- Generator: Adobe Illustrator 23.0.3, SVG Export Plug-In . SVG Version: 6.00 Build 0)  -->
<svg version="1.1"
	 id="svg16" xmlns:cc="http://creativecommons.org/ns#" xmlns:dc="http://purl.org/dc/elements/1.1/" xmlns:inkscape="http://www.inkscape.org/namespaces/inkscape" xmlns:rdf="http://www.w3.org/1999/02/22-rdf-syntax-ns#" xmlns:sodipodi="http://sodipodi.sourceforge.net/DTD/sodipodi-0.dtd" xmlns:svg="http://www.w3.org/2000/svg"
	 xmlns="http://www.w3.org/2000/svg" xmlns:xlink="http://www.w3.org/1999/xlink" x="0px" y="0px" viewBox="0 0 248 283.5"
	 style="enable-background:new 0 0 248 283.5;" xml:space="preserve">
<style type="text/css">
	.st0{fill:#999999;stroke:#FFFFFF;stroke-miterlimit:10;}
	.st1{fill:#999999;stroke:#FFFFFF;stroke-width:5;stroke-miterlimit:10;}
	.st2{display:none;fill:#999999;stroke:#FFFFFF;stroke-miterlimit:10;}
	.st3{fill:#FFFFFF;stroke:#FFFFFF;stroke-miterlimit:10;}
	.st4{font-family:'MyriadPro-Regular';}
	.st5{font-size:12px;}
	.st6{fill:#FFFFFF;}
</style>
<path class="st0" d="M107.1,211l16.4-150.5c0.6-4.7,1.6-14.3,6.3-15.1c25.1-4.2,102-12.1,106.7,47.2c0.9,11.8-1.5,23.8-6.9,34.4
	c-17,33.4-48.8,31.9-65.9,29c-5.8-1-18.3,0.7-19.3,6.5l-8.7,51.1c-2.7,14.9-9,11.4-24.1,11.5h0C105.1,225,106.3,217.4,107.1,211z"/>
<sodipodi:namedview  bordercolor="#666666" borderopacity="1.0" id="base" inkscape:bbox-nodes="true" inkscape:bbox-paths="false" inkscape:current-layer="layer1" inkscape:cx="214.07671" inkscape:cy="183.1903" inkscape:document-rotation="0" inkscape:document-units="mm" inkscape:guide-bbox="true" inkscape:object-nodes="true" inkscape:object-paths="true" inkscape:pageopacity="0.0" inkscape:pageshadow="2" inkscape:snap-bbox="true" inkscape:snap-bbox-edge-midpoints="true" inkscape:snap-bbox-midpoints="true" inkscape:snap-global="true" inkscape:snap-intersection-paths="true" inkscape:snap-nodes="true" inkscape:snap-smooth-nodes="true" inkscape:window-height="818" inkscape:window-maximized="0" inkscape:window-width="1252" inkscape:window-x="0" inkscape:window-y="23" inkscape:zoom="1.1914915" pagecolor="#ffffff" showgrid="false" showguides="false">
	<sodipodi:guide  id="guide316" orientation="0,-1" position="80.810381,48.176963"></sodipodi:guide>
	<sodipodi:guide  id="guide318" orientation="1,0" position="68.22745,56.658791"></sodipodi:guide>
	<sodipodi:guide  id="guide320" orientation="0,-1" position="84.891413,53.071019"></sodipodi:guide>
	<sodipodi:guide  id="guide322" orientation="1,0" position="77.625255,70.906291"></sodipodi:guide>
	<sodipodi:guide  id="guide324" orientation="0,-1" position="73.878202,69.501146"></sodipodi:guide>
	<sodipodi:guide  id="guide326" orientation="1,0" position="76.25614,65.159608"></sodipodi:guide>
	<sodipodi:guide  id="guide328" orientation="0,-1" position="75.319376,61.844907"></sodipodi:guide>
	<sodipodi:guide  id="guide330" orientation="0,-1" position="89.900892,60.124139"></sodipodi:guide>
	<sodipodi:guide  id="guide332" orientation="0,-1" position="85.431797,55.164885"></sodipodi:guide>
	<sodipodi:guide  id="guide334" orientation="1,0" position="82.776715,54.293175"></sodipodi:guide>
	<sodipodi:guide  id="guide336" orientation="1,0" position="87.923682,57.504531"></sodipodi:guide>
	<sodipodi:guide  id="guide338" orientation="1,0" position="83.597884,60.124139"></sodipodi:guide>
	<sodipodi:guide  id="guide340" orientation="1,0" position="81.050781,57.735736"></sodipodi:guide>
	<sodipodi:guide  id="guide342" orientation="1,0" position="88.891488,60.124139"></sodipodi:guide>
	<sodipodi:guide  id="guide344" orientation="1,0" position="91.503482,60.853488"></sodipodi:guide>
	<sodipodi:guide  id="guide346" orientation="1,0" position="75.449812,58.412063"></sodipodi:guide>
	<sodipodi:guide  id="guide348" orientation="0,-1" position="77.625255,56.933247"></sodipodi:guide>
	<sodipodi:guide  id="guide1243" orientation="0,-1" position="87.705999,60.663141"></sodipodi:guide>
</sodipodi:namedview>
<g id="g351">
	<g>
		
			<ellipse transform="matrix(4.251902e-02 -0.9991 0.9991 4.251902e-02 -54.6897 194.2175)" class="st1" cx="74" cy="125.6" rx="78.5" ry="64.6"/>
		
			<ellipse transform="matrix(4.251902e-02 -0.9991 0.9991 4.251902e-02 -58.7788 192.1198)" class="st2" cx="70.8" cy="126.7" rx="84.2" ry="64.6"/>
		
			<ellipse transform="matrix(4.251900e-02 -0.9991 0.9991 4.251900e-02 -45.5566 197.0657)" class="st3" cx="80" cy="122.3" rx="43" ry="28.5"/>
	</g>
</g>
<text transform="matrix(1 0 0 1 174.2725 86.8484)" class="st4 st5">P</text>
<path class="st6" d="M155.8,72.5l-7.4,48.7c-1.1,5.8,9.1,10.1,15.8,10.3c15.1,0.5,39.3-3.2,43.8-30.7c3.8-24.4-21.6-30.3-35.6-31.6
	C167.5,68.8,156.7,68.2,155.8,72.5z"/>
</svg>
